<?xml version="1.0" standalone="no"?>
<!DOCTYPE svg PUBLIC "-//W3C//DTD SVG 20010904//EN"
 "http://www.w3.org/TR/2001/REC-SVG-20010904/DTD/svg10.dtd">
<svg version="1.0" xmlns="http://www.w3.org/2000/svg"
 width="700.000000pt" height="700.000000pt" viewBox="0 0 700.000000 700.000000"
 preserveAspectRatio="xMidYMid meet">
<metadata>
Created by potrace 1.11, written by Peter Selinger 2001-2013
</metadata>
<g transform="translate(0.000000,700.000000) scale(0.100000,-0.100000)"
fill="#000000" stroke="none">
<path d="M426 6984 c-198 -48 -373 -230 -415 -429 -11 -57 -7 -215 7 -262 20
-64 73 -161 112 -205 22 -25 40 -49 40 -52 0 -4 -16 -20 -35 -37 -161 -141
-177 -405 -35 -568 26 -31 25 -41 -4 -68 -25 -24 -73 -115 -84 -160 -4 -16 -6
-67 -6 -114 1 -75 5 -95 33 -155 18 -38 45 -83 62 -100 l29 -30 -21 -20 c-30
-27 -65 -90 -88 -157 -15 -43 -19 -77 -16 -140 3 -93 29 -162 87 -237 l34 -45
-24 -25 c-60 -63 -101 -181 -98 -283 3 -101 39 -193 99 -257 l23 -25 -38 -50
c-146 -191 -99 -466 100 -594 102 -65 98 -64 629 -65 265 -1 483 -3 485 -6 3
-3 16 -53 30 -111 31 -130 65 -208 136 -318 178 -278 482 -450 802 -454 130
-2 157 9 180 70 6 18 17 33 23 34 7 0 59 1 116 2 l104 2 27 -55 c57 -117 111
-192 194 -272 l28 -27 -45 -133 c-38 -113 -90 -262 -211 -608 -182 -520 -195
-562 -189 -644 15 -213 178 -373 389 -382 112 -5 183 18 275 89 l44 33 30 -27
c27 -26 71 -50 140 -79 16 -6 65 -14 107 -16 110 -6 209 29 284 98 l31 29 32
-31 c51 -47 150 -89 224 -96 235 -21 437 151 450 383 4 68 -8 120 -61 273 -53
151 -200 575 -303 874 l-82 238 39 37 c60 55 128 149 170 234 28 57 44 77 59
78 73 4 207 0 212 -5 4 -4 8 -13 9 -20 4 -30 38 -66 71 -77 52 -17 210 -4 326
26 288 75 520 265 653 536 31 63 69 172 79 228 14 74 17 86 21 91 3 2 224 5
492 6 461 1 490 3 538 21 267 104 355 414 184 641 -29 38 -36 53 -26 59 20 13
76 100 91 144 25 70 29 166 10 238 -16 63 -74 168 -101 184 -11 6 -7 17 21 51
124 152 123 377 -3 526 l-29 35 37 45 c105 129 117 318 28 465 -17 28 -37 54
-44 58 -21 12 -17 24 26 85 122 170 95 415 -61 546 -16 14 -29 28 -29 31 0 4
18 27 40 53 86 97 132 238 125 382 -7 147 -59 263 -163 367 -71 71 -189 135
-282 152 -55 10 -267 7 -325 -4 -16 -3 -55 -10 -85 -16 -82 -16 -210 -55 -300
-93 -70 -30 -224 -113 -254 -137 -6 -5 -40 -30 -76 -56 -81 -60 -231 -207
-297 -293 -123 -158 -154 -224 -362 -745 -95 -237 -176 -439 -181 -450 -5 -11
-68 -168 -141 -350 -72 -181 -137 -343 -144 -360 -7 -16 -46 -115 -87 -218
l-75 -188 -38 48 c-21 26 -58 68 -82 91 l-43 44 0 131 c0 589 -7 894 -23 940
-60 177 -194 315 -362 372 -62 21 -82 24 -170 25 -113 1 -152 -8 -255 -58
-123 -60 -241 -195 -278 -317 -27 -90 -30 -146 -31 -609 l0 -483 -61 -63 c-34
-35 -69 -77 -78 -92 -9 -15 -19 -28 -22 -28 -3 0 -12 17 -19 38 -7 20 -19 51
-26 67 -7 17 -79 197 -160 400 -81 204 -153 384 -160 400 -7 17 -41 100 -74
185 -34 85 -65 164 -70 175 -5 11 -41 101 -81 200 -39 99 -75 189 -80 200 -5
11 -32 79 -60 150 -29 72 -58 143 -66 159 -8 16 -14 33 -14 37 0 24 -137 242
-209 333 -87 108 -281 278 -396 346 -259 151 -479 218 -750 225 -89 2 -148 -1
-189 -11z m5724 -977 c0 -8 -13 -13 -35 -13 -41 0 -43 3 -12 16 32 13 47 12
47 -3z"/>
</g>
</svg>
